<svg width="188" height="60" viewBox="0 0 188 60" fill="none" xmlns="http://www.w3.org/2000/svg">
<path d="M13.7218 29.9729C6.82847 38.3214 24.2529 53.9454 27.159 42.6869C28.9731 35.0546 20.6224 23.4259 12.9998 30.3334" fill="#C82E2E"/>
<path fill-rule="evenodd" clip-rule="evenodd" d="M37.8023 7.91327C39.6164 5.37239 43.2445 5.00941 42.8816 9.00222C41.8868 9.41753 40.7844 9.50056 39.7386 9.23899C38.6928 8.9774 37.7592 8.38515 37.0767 7.55029L37.8023 7.91327ZM35.7899 8.65138C32.9031 9.8238 30.0478 10.9962 27.2929 12.3465C24.5423 13.6568 21.9175 15.2165 19.4514 17.006C17.0048 18.7617 14.8839 20.932 13.1845 23.4187C12.3519 24.6771 11.67 26.029 11.1528 27.4466C10.8917 28.1644 10.6713 28.8964 10.4924 29.639C10.4005 30.0128 10.3231 30.3891 10.2506 30.7703C10.178 31.1514 10.12 31.5337 10.0619 31.9197C10.0268 31.5313 10.0147 31.1405 10.0099 30.7485C10.0051 30.3565 10.0244 29.9644 10.051 29.5712C10.1065 28.782 10.2218 27.9981 10.3957 27.2263C10.7509 25.6667 11.3267 24.1658 12.1057 22.7689C12.8893 21.3699 13.8377 20.0701 14.9308 18.8971C15.4726 18.3091 16.0482 17.755 16.642 17.2226C17.2358 16.6902 17.8599 16.1953 18.496 15.7198C21.0523 13.8616 23.8379 12.3418 26.7837 11.1983C29.6917 10.0458 32.7092 9.1924 35.7899 8.65138ZM9.70032 40.7547C9.63964 41.1967 9.55808 41.6324 9.4769 42.0658L9.4585 42.1643L9.18876 43.5545C9.01098 44.4764 8.83808 45.3912 8.70501 46.3011C8.56658 47.1859 8.50185 48.0807 8.51152 48.9762C8.51806 49.3883 8.56917 49.7984 8.66391 50.1995C8.70731 50.3787 8.76681 50.5537 8.84169 50.7222L8.86136 50.7638C8.87357 50.7895 8.88606 50.8158 8.89851 50.8432L8.92877 50.8976L8.9711 50.9702C9.0122 51.0379 9.06545 51.1202 9.11866 51.1904C9.33344 51.4839 9.60538 51.7308 9.91808 51.9164C10.2566 52.1205 10.6234 52.2738 11.0065 52.3713C11.8532 52.5786 12.7245 52.6682 13.5957 52.6375C14.5144 52.6154 15.4312 52.5435 16.3422 52.4221C16.8054 52.3653 17.2698 52.3012 17.7366 52.231L17.8926 52.2075L17.8937 52.2073C18.3085 52.1448 18.7247 52.0822 19.1466 52.0253C18.7282 52.2588 18.3001 52.4669 17.8599 52.6593C17.4197 52.8516 16.9759 53.0223 16.5224 53.1868C15.6056 53.5106 14.66 53.746 13.6985 53.8898C13.4566 53.9236 13.2075 53.9515 12.9596 53.9721C12.7117 53.9926 12.4601 53.9999 12.2062 53.9999C11.688 54.0029 11.1708 53.9523 10.663 53.8486C10.1241 53.7387 9.60552 53.5456 9.12588 53.2763C8.62374 52.9861 8.18662 52.5957 7.84155 52.1293C7.75462 52.0102 7.67388 51.8866 7.59968 51.7591L7.54887 51.6695L7.49566 51.5691C7.46061 51.5025 7.42918 51.4348 7.39896 51.367C7.28391 51.1044 7.19556 50.8308 7.13527 50.5503C7.02866 50.0299 6.98478 49.4986 7.00465 48.9677C7.02178 48.4657 7.07474 47.9655 7.1631 47.471C7.24535 46.9871 7.35781 46.5031 7.48478 46.0397C8.01416 44.1974 8.75778 42.4236 9.70032 40.7547ZM29.3392 50.6761C29.2661 50.6683 29.1934 50.6566 29.1215 50.641L29.1207 50.6408C29.0521 50.6228 28.9833 50.6047 28.9147 50.5842C28.7795 50.5417 28.6481 50.4883 28.5216 50.4245L28.4886 50.3719C28.4285 50.2763 28.3688 50.1813 28.3113 50.0856C28.2545 49.9911 28.1998 49.8959 28.1492 49.799C27.9334 49.3838 27.7412 48.9568 27.5735 48.52L27.5467 48.4524L27.5173 48.3777L27.4664 48.2481L27.4652 48.2452C27.3365 47.9174 27.211 47.5976 27.0728 47.2956C26.9875 47.1073 26.8919 46.9239 26.7862 46.7463C26.7947 46.6253 26.7983 46.5043 26.8019 46.3687V46.1691V45.9561C26.8411 45.9615 26.88 45.9681 26.9186 45.9759C26.9517 45.9826 26.9845 45.9901 27.0172 45.9985C27.0861 46.0179 27.1539 46.0408 27.2228 46.0662C27.357 46.1174 27.4868 46.1793 27.611 46.2514C27.7354 46.4599 27.8481 46.6752 27.9484 46.8963C28.0984 47.224 28.2267 47.5503 28.3519 47.8688C28.3913 47.9691 28.4303 48.0684 28.4697 48.1667C28.6239 48.57 28.8008 48.9643 28.9993 49.3476C29.0943 49.5315 29.203 49.7078 29.3246 49.8752L29.3319 50.2575L29.3392 50.6761ZM24.7247 48.1674C24.6912 48.1546 24.6574 48.1416 24.6203 48.1305C24.6127 48.141 24.6056 48.1514 24.5987 48.1617C24.589 48.1762 24.5798 48.1906 24.5706 48.2049C24.5539 48.231 24.5373 48.257 24.5175 48.2842L24.4413 48.4354C24.3944 48.5323 24.354 48.6321 24.3203 48.7343C24.3563 48.8088 24.3884 48.8841 24.4203 48.9589L24.4205 48.9594L24.4206 48.9599C24.4497 49.028 24.4786 49.0959 24.5102 49.1626C24.6384 49.4433 24.7739 49.7168 24.9069 49.983C25.0399 50.2491 25.1706 50.5129 25.2915 50.7743C25.3507 50.9049 25.4088 51.0356 25.462 51.1663C25.5037 51.1836 25.5451 51.201 25.5865 51.2185L25.591 51.2205C25.659 51.2493 25.7275 51.2782 25.7988 51.3071C25.8827 51.341 25.9705 51.3748 26.0667 51.4082C26.1859 51.2187 26.2821 51.0156 26.3533 50.8033C26.3083 50.693 26.2612 50.5841 26.2131 50.4767C26.1978 50.4426 26.1825 50.4087 26.167 50.3749C26.0628 50.1466 25.9529 49.9248 25.8446 49.7059L25.8128 49.6417L25.7704 49.5558L25.7697 49.5545L25.7673 49.5494C25.6365 49.2842 25.5081 49.0238 25.3882 48.7645C25.3721 48.7271 25.3554 48.6901 25.3387 48.6532C25.3127 48.5955 25.2867 48.538 25.2634 48.4798C25.249 48.444 25.2356 48.4079 25.2237 48.3713C25.1751 48.3483 25.1257 48.326 25.0744 48.3042C25.0313 48.2859 24.987 48.268 24.9407 48.2503L24.7884 48.191C24.7762 48.1868 24.764 48.1823 24.752 48.1778L24.7254 48.1677L24.7247 48.1674ZM19.5288 23.9922C19.9013 23.6284 20.3061 23.2991 20.7382 23.0086C21.1746 22.7178 21.6318 22.4594 22.106 22.2354C23.0626 21.79 24.0691 21.461 25.104 21.2553C27.187 20.8513 29.3238 20.8071 31.4217 21.1247C32.4748 21.277 33.514 21.5129 34.5297 21.8301C35.5533 22.1455 36.5473 22.5504 37.5 23.04C38.465 23.5356 39.374 24.1335 40.2113 24.8235C41.0644 25.5275 41.8132 26.3492 42.4353 27.2639C42.7454 27.7299 43.0149 28.2218 43.2408 28.734C43.8496 30.1044 44.0931 31.6056 43.9527 33.0918H42.4214C42.5304 31.8227 42.3156 30.5444 41.7944 29.3777C41.6016 28.948 41.3726 28.5355 41.1099 28.1447C40.575 27.3513 39.9318 26.6366 39.1991 26.0213C38.4549 25.3894 37.6481 24.8351 36.7913 24.3673C33.2507 22.4678 29.2304 21.6507 25.2297 22.0176C24.2256 22.119 23.2349 22.3259 22.274 22.6347C21.791 22.7917 21.3198 22.983 20.8639 23.207C20.3987 23.4326 19.9522 23.6952 19.5288 23.9922Z" fill="#2C6C60"/>
<path d="M40.6572 41.5693H42.5635L38.3789 52.4268H36.1465L39.1924 43.8945L35.9141 48.6602L33.8916 47.707L41.6104 35.6406H44.8184L40.6572 41.5693ZM50.6074 38.4307H47.3066L46.167 40.4307H50.3057L46.167 47.498L47.3516 50.3281L46.7715 52.4268H45.5625L44.7725 50.0791L43.5166 52.4268H41.1914L43.9121 47.3584L43.5166 46.3818L40.6104 52.4268H38.7041L45.3877 35.6406H52.9326L50.6074 38.4307ZM61.5107 38.4307H58.4189L56.373 40.4307H60.9531L57.1865 52.4268H46.9111L50.4795 40.4307H53.8389L55.5244 38.4307H52.2695L53.4326 35.6406H63.999L61.5107 38.4307ZM61.9297 52.4268H58.582L65.1846 43.127H60.6279L61.4414 40.4307H71.0898L61.9297 52.4268ZM75.2744 41.5693H76.9482L72.7754 52.4268H69.8691L73.415 43.4062L66.4053 49.707L68.0557 44.8477L77.2734 35.6406H82.0283L75.2744 41.5693ZM79.9238 52.4268H76.832L82.0166 44.3711H79.6914L77.0186 48.1953L75.8096 45.8242L82.458 35.6406H90.8857L79.9238 52.4268ZM104.915 40.5742H106.949L105.918 43.1445H102.952L96.1914 52H93L99.293 43.1357H94.9502L95.7256 40.5654H104.922L104.915 40.5742ZM171.943 49.2549H176.558L174.654 45.6133L177.155 44.6982L181 51.9922L170.36 51.877H167.738L171.331 44.1631L175.251 36H178.095L171.943 49.2549ZM113.994 39.7549H116.091L118.479 36H121.614L119.188 39.7549H121.55L119.712 42.2363H117.584L111.357 51.8691H108.386L114.512 42.2363H112.325L108.549 47.8535H106.001L109.669 42.2363H106.85L108.825 39.7549H111.29L113.742 36H116.519L113.994 39.7549ZM171.44 40.5371H172.082L171.062 43.0859H167.928L162.21 51.8691H159.441L164.826 43.0771H160.066L160.834 40.5273H171.447L171.44 40.5371ZM125.493 41.6035H127.076L123.13 51.8652H120.382L123.734 43.3389L117.106 49.2939L118.668 44.7012L127.384 36H131.879L125.493 41.6035ZM130.492 51.8652H126.58L139.856 36H142.736L130.492 51.8652ZM151.932 38.6152L142.634 51.8652H138.666L152.174 36L151.932 38.6152ZM156.537 44.3604L159.334 51.8633H156.85L155.154 46.1523L150.745 51.8652H147.028L158.117 38.6152H152.57L152.777 36H163.381L156.537 44.3604ZM49.8867 49.9395H50.6074L52.6064 42.7549H51.9561L49.8867 49.9395ZM52.3975 49.9395H53.1533L53.3857 49.0205H52.6064L52.3975 49.9395ZM54.9785 49.916H55.6289L57.6289 42.7549H57.0703L54.9785 49.916ZM53.3047 46.6846H54.0947L54.2344 45.917H53.4668L53.3047 46.6846ZM94.9775 46.5566H85.2129L86.7129 43.9414H96.373L94.9775 46.5566ZM44.8418 43.2432L45.3066 44.4521L46.2832 42.7783H45.1211L44.8418 43.2432ZM54.2812 43.4062H55.0127L55.2803 42.6855H54.4902L54.2812 43.4062ZM145.821 42.1523H141.029L141.963 39.582H147.558L145.821 42.1523ZM81.4355 42.0117H83.4346L85.667 38.4893H83.7139L81.4355 42.0117ZM123.275 38.873H120.896L121.484 37.5908H124.138L123.275 38.873ZM110.071 38.708H107.83L108.384 37.499H110.884L110.071 38.708ZM107.399 38.6592H97.8975L98.6729 36H108.631L107.399 38.6592ZM172.529 38.6377H162.985L163.754 36H173.748L172.529 38.6377ZM136.582 38.6152H131.272L132.174 36H138.516L136.582 38.6152ZM148.217 38.6152H142.304L143.249 36H149.976L148.217 38.6152ZM71.0195 38.4307H63.7197L64.5332 35.6406H75.5771L71.0195 38.4307ZM124.53 37.3047H121.517L122.063 36H125.404L124.53 37.3047ZM111.254 37.2295H108.415L108.931 36H112.076L111.254 37.2295Z" fill="#C82E2E"/>
</svg>
