<svg width="1048" height="563" viewBox="0 0 1048 563" fill="none" xmlns="http://www.w3.org/2000/svg">
<path d="M78.8087 281.081C-2.01592 378.968 202.286 562.159 236.36 430.153C257.63 340.665 159.718 204.318 70.3432 285.309" fill="#C82E2E"/>
<path fill-rule="evenodd" clip-rule="evenodd" d="M361.157 22.4331C382.427 -7.35878 424.966 -11.6147 420.712 35.2011C409.047 40.0705 396.122 41.0441 383.86 37.9772C371.598 34.91 360.652 27.9659 352.65 18.1772L361.157 22.4331ZM337.561 31.0874C303.714 44.8341 270.235 58.5808 237.934 74.413C205.683 89.776 174.908 108.063 145.992 129.045C117.306 149.631 92.4383 175.077 72.513 204.234C62.7512 218.989 54.7562 234.839 48.6911 251.461C45.6303 259.878 43.0456 268.46 40.9486 277.167C39.8709 281.55 38.9637 285.963 38.1132 290.431C37.2621 294.9 36.5816 299.383 35.9011 303.909C35.4896 299.355 35.3477 294.772 35.291 290.176C35.2343 285.579 35.461 280.983 35.7735 276.373C36.4242 267.119 37.7755 257.928 39.8148 248.879C43.9797 230.592 50.731 212.994 59.8649 196.616C69.0515 180.212 80.1726 164.971 92.9889 151.219C99.3413 144.324 106.09 137.827 113.053 131.585C120.015 125.342 127.332 119.54 134.791 113.965C164.763 92.177 197.424 74.3575 231.964 60.95C266.06 47.4365 301.44 37.4309 337.561 31.0874ZM31.6612 407.498C30.9498 412.681 29.9935 417.79 29.0417 422.871L28.8259 424.026L25.6632 440.326C23.5787 451.136 21.5515 461.862 19.9913 472.53C18.3681 482.904 17.6092 493.396 17.7225 503.896C17.7992 508.728 18.3985 513.536 19.5094 518.239C20.0182 520.34 20.7159 522.392 21.5938 524.367L21.8245 524.856C21.9676 525.157 22.1141 525.465 22.26 525.786L22.6149 526.424L23.1111 527.275C23.593 528.07 24.2174 529.035 24.8413 529.858C27.3596 533.298 30.548 536.194 34.2144 538.37C38.1842 540.763 42.4841 542.56 46.9758 543.704C56.9042 546.134 67.1198 547.184 77.3349 546.825C88.1063 546.566 98.8559 545.723 109.537 544.3C114.968 543.633 120.413 542.881 125.886 542.058L127.715 541.783L127.729 541.78C132.592 541.048 137.473 540.314 142.419 539.646C137.513 542.384 132.494 544.824 127.333 547.08C122.171 549.335 116.967 551.336 111.65 553.265C100.901 557.062 89.8136 559.821 78.5397 561.508C75.7037 561.905 72.7825 562.231 69.8762 562.472C66.9693 562.714 64.0201 562.798 61.0422 562.798C54.9663 562.834 48.9023 562.24 42.9489 561.025C36.6303 559.736 30.5498 557.473 24.926 554.315C19.0383 550.912 13.9131 546.334 9.86721 540.866C8.84788 539.469 7.90123 538.02 7.03128 536.525L6.43548 535.475L5.81163 534.298C5.40069 533.517 5.03211 532.723 4.67783 531.929C3.32883 528.849 2.2929 525.641 1.58607 522.353C0.336081 516.251 -0.178451 510.021 0.0544907 503.797C0.255381 497.91 0.876367 492.046 1.9123 486.248C2.87669 480.573 4.19535 474.899 5.684 469.465C11.891 447.865 20.61 427.067 31.6612 407.498ZM261.927 523.828C261.069 523.736 260.217 523.599 259.375 523.416L259.366 523.414C258.56 523.202 257.755 522.99 256.95 522.749C255.365 522.252 253.824 521.626 252.341 520.877L251.953 520.26C251.249 519.14 250.549 518.025 249.875 516.904C249.209 515.795 248.568 514.679 247.974 513.543C245.444 508.675 243.191 503.669 241.224 498.548L240.91 497.754L240.565 496.879L239.968 495.359L239.954 495.325C238.446 491.482 236.974 487.732 235.354 484.191C234.354 481.983 233.232 479.833 231.993 477.75C232.093 476.331 232.135 474.912 232.177 473.324V470.983V468.486C232.636 468.549 233.093 468.626 233.546 468.717C233.933 468.795 234.318 468.884 234.701 468.982C235.509 469.21 236.304 469.479 237.112 469.777C238.685 470.376 240.208 471.103 241.664 471.948C243.123 474.392 244.444 476.916 245.62 479.509C247.379 483.351 248.883 487.178 250.351 490.912C250.813 492.088 251.271 493.252 251.732 494.405C253.54 499.133 255.614 503.756 257.942 508.251C259.055 510.406 260.33 512.474 261.756 514.436L261.841 518.919L261.927 523.828ZM207.822 494.412C207.429 494.262 207.033 494.111 206.598 493.98C206.509 494.104 206.426 494.225 206.345 494.346C206.231 494.516 206.123 494.684 206.015 494.853C205.819 495.159 205.624 495.463 205.393 495.782L204.499 497.555C203.95 498.691 203.476 499.861 203.081 501.06C203.503 501.934 203.879 502.815 204.252 503.693L204.255 503.699L204.257 503.704C204.598 504.503 204.937 505.299 205.307 506.082C206.811 509.373 208.399 512.579 209.959 515.7C211.518 518.821 213.05 521.914 214.468 524.978C215.162 526.51 215.843 528.042 216.467 529.575C216.956 529.778 217.441 529.982 217.927 530.187L217.98 530.21C218.777 530.548 219.58 530.887 220.416 531.225C221.399 531.623 222.429 532.02 223.557 532.412C224.955 530.189 226.083 527.808 226.917 525.318C226.39 524.025 225.838 522.749 225.274 521.489C225.095 521.09 224.914 520.692 224.734 520.296C223.512 517.619 222.223 515.018 220.953 512.452L220.58 511.699L220.083 510.692L220.075 510.677L220.046 510.616C218.513 507.507 217.008 504.454 215.601 501.414C215.412 500.975 215.217 500.542 215.022 500.109C214.716 499.432 214.412 498.758 214.138 498.075C213.969 497.656 213.812 497.233 213.673 496.804C213.102 496.534 212.523 496.272 211.922 496.016C211.418 495.802 210.898 495.592 210.355 495.385L208.568 494.69C208.425 494.64 208.283 494.588 208.143 494.535L207.83 494.416L207.822 494.412ZM146.9 210.959C151.268 206.692 156.014 202.832 161.08 199.425C166.198 196.016 171.558 192.986 177.117 190.36C188.333 185.138 200.135 181.28 212.269 178.869C236.693 174.131 261.746 173.613 286.344 177.337C298.692 179.122 310.877 181.888 322.786 185.608C334.788 189.306 346.442 194.053 357.612 199.794C368.927 205.605 379.585 212.615 389.402 220.705C399.405 228.96 408.185 238.594 415.479 249.319C419.115 254.783 422.275 260.55 424.923 266.556C432.061 282.624 434.917 300.226 433.271 317.652H415.316C416.594 302.772 414.076 287.783 407.964 274.103C405.704 269.065 403.019 264.229 399.938 259.647C393.666 250.344 386.126 241.964 377.534 234.75C368.809 227.34 359.349 220.842 349.303 215.357C307.79 193.085 260.652 183.505 213.743 187.807C201.97 188.996 190.354 191.421 179.088 195.042C173.425 196.883 167.9 199.126 162.555 201.752C157.099 204.397 151.864 207.476 146.9 210.959Z" fill="#2C6C60"/>
<path fill-rule="evenodd" clip-rule="evenodd" d="M934.637 444.857L917.055 475.524H1031.54L1047.9 444.857H934.637ZM884.753 347.542L806.791 466.937L820.966 494.741L852.314 449.9H879.574L818.786 544.353H855.04L983.567 347.542H884.753ZM899.473 380.934L872.759 422.232H896.202L922.371 380.934H899.473ZM879.71 347.542H823.965L715.882 455.488L696.528 512.46L778.714 438.587L737.144 544.353H771.218L820.148 417.053H800.522L879.71 347.542ZM674.584 347.542L665.043 380.253H750.637L804.065 347.542H674.584ZM638.329 403.696L628.789 435.316H682.217L604.801 544.353H644.054L751.455 403.696H638.329ZM315.308 489.017L405.808 347.542H443.426L394.632 417.053H416.985L367.918 544.353H341.749L377.459 444.312L339.023 500.193L315.308 489.017ZM450.104 347.542L371.734 544.353H394.087L428.161 473.479L432.795 484.928L400.902 544.353H413.441H417.802H428.161L442.881 516.821L452.149 544.353H466.324L473.125 519.752L459.236 486.564L507.758 403.696H459.236L472.593 380.253H511.301L538.561 347.542H450.104ZM446.97 431.227L443.699 436.679L449.15 450.854L460.599 431.227H446.97ZM544.421 347.542L530.792 380.253H568.955L549.192 403.696H509.802L467.959 544.353H588.445L632.605 403.696H578.904L602.892 380.253H639.147L668.315 347.542H544.421ZM527.112 430.955L502.851 515.186H511.301L534.744 430.955H527.112ZM562.549 514.913L587.082 430.955H593.624L570.181 514.913H562.549ZM556.824 430.137L554.371 438.587H562.958L566.092 430.137H556.824ZM542.922 477.023L544.83 468.027H553.826L552.19 477.023H542.922ZM534.744 504.418L532.291 515.186H541.15L543.876 504.418H534.744Z" fill="#C82E2E"/>
</svg>
