<svg viewBox="0 0 25 32" xmlns="http://www.w3.org/2000/svg"><path d="M4.481 15.982c-4.596 5.566 7.02 15.982 8.958 8.476 1.21-5.088-4.358-12.84-9.44-8.236" fill="#C82E2E"/><path d="M23.921 2.001c.242-2.661-2.177-2.42-3.386-.725l-.484-.242a3.34 3.34 0 0 0 3.87.967M13.53 4.231c1.836-.9 3.74-1.682 5.664-2.463-2.053.36-4.065.93-6.004 1.698A24.4 24.4 0 0 0 7.664 6.48c-.424.317-.84.647-1.236 1.002s-.78.724-1.14 1.116a13.4 13.4 0 0 0-1.884 2.581c-.52.931-.903 1.932-1.14 2.972a10.5 10.5 0 0 0-.223 3.129 22 22 0 0 1 .126-.767q.07-.38.161-.754.18-.743.44-1.461c.345-.945.8-1.847 1.355-2.686a17.2 17.2 0 0 1 4.178-4.275 33.3 33.3 0 0 1 5.228-3.106M1.65 24.044c.054-.29.109-.58.15-.874a16.3 16.3 0 0 0-1.478 3.523c-.084.31-.16.632-.214.954q-.089.496-.106.998A4.4 4.4 0 0 0 .09 29.7a3 3 0 0 0 .24.68l.036.066.034.06q.075.127.161.247c.23.31.521.571.856.765.32.18.666.308 1.025.381q.51.105 1.029.1.255.002.502-.018.249-.02.493-.055a10 10 0 0 0 1.882-.468c.303-.11.598-.224.892-.352q.44-.19.858-.423-.423.058-.836.122l-.104.016q-.467.07-.93.127a17 17 0 0 1-1.83.144 6.4 6.4 0 0 1-1.727-.178 2.7 2.7 0 0 1-.726-.303 1.8 1.8 0 0 1-.63-.63l-.03-.05-.02-.036-.024-.052-.013-.028a2 2 0 0 1-.119-.349 3.8 3.8 0 0 1-.101-.815q-.01-.897.129-1.784c.088-.606.204-1.216.322-1.83l.18-.927zm6.702-12.05q.373-.364.806-.655.436-.291.912-.515a8.8 8.8 0 0 1 1.998-.654 12.4 12.4 0 0 1 4.212-.087 13.4 13.4 0 0 1 2.072.47c.682.21 1.345.48 1.98.807.644.33 1.25.729 1.808 1.189a7.8 7.8 0 0 1 1.483 1.627q.31.467.537.98a5.8 5.8 0 0 1 .422 3.307 7.2 7.2 0 0 1-.685 2.088 9 9 0 0 1-.54.938q-.297.448-.637.864a12.8 12.8 0 0 1-3.187 2.755q-.893.552-1.865.946c-.323.13-.651.242-.983.345a9 9 0 0 1-1.01.231 13 13 0 0 0 3.563-1.954 13.8 13.8 0 0 0 2.822-2.835 10 10 0 0 0 .99-1.692 6.6 6.6 0 0 0 .535-1.832 5 5 0 0 0-.39-2.732 5.5 5.5 0 0 0-.456-.822 7 7 0 0 0-1.274-1.415 9.6 9.6 0 0 0-1.605-1.103 13.66 13.66 0 0 0-7.708-1.567c-.67.068-1.33.206-1.97.412a7 7 0 0 0-.94.381q-.466.226-.89.524m6.395 17.767q.072.015.145.023l-.005-.279-.005-.255a3 3 0 0 1-.217-.352 8 8 0 0 1-.353-.787l-.078-.198a13 13 0 0 0-.27-.649 4 4 0 0 0-.224-.43 1.8 1.8 0 0 0-.396-.168 1 1 0 0 0-.144-.029v.276c-.002.09-.005.17-.01.251q.105.178.19.366c.093.202.177.416.263.635l.034.087.02.05.018.045q.168.436.383.852c.068.13.147.255.227.382l.022.035q.127.065.262.107zm-3.001-1.674.07.025.042.015.101.04q.101.039.19.08.032.096.076.189l.033.074q.121.26.254.526v.001l.029.058.021.042q.11.219.215.446.065.14.124.286a2 2 0 0 1-.19.403 5 5 0 0 1-.404-.161 7 7 0 0 0-.114-.262 20 20 0 0 0-.256-.527 17 17 0 0 1-.324-.682q-.032-.075-.067-.15a2 2 0 0 1 .08-.2l.051-.1.036-.053q.014-.025.033-.05" fill="#2C6C60"/></svg>